<?xml version="1.0" encoding="utf-8"?>
<!-- Generator: Adobe Illustrator 16.2.0, SVG Export Plug-In . SVG Version: 6.00 Build 0)  -->
<!DOCTYPE svg PUBLIC "-//W3C//DTD SVG 1.1//EN" "http://www.w3.org/Graphics/SVG/1.1/DTD/svg11.dtd">
<svg version="1.1" id="レイヤー_1" xmlns="http://www.w3.org/2000/svg" xmlns:xlink="http://www.w3.org/1999/xlink" x="0px"
	 y="0px" width="170.079px" height="170.079px" viewBox="0 0 170.079 170.079" enable-background="new 0 0 170.079 170.079"
	 xml:space="preserve">
<g>
	<path fill="#DD6935" d="M-76.919,24.033c0,7.795-6.379,14.172-14.174,14.172h-141.733c-7.796,0-14.174-6.377-14.174-14.172
		v-141.734c0-7.795,6.378-14.173,14.174-14.173h141.733c7.795,0,14.174,6.378,14.174,14.173V24.033z"/>
</g>
<g>
	<path fill="#DD6935" d="M170.079,150.236c0,10.914-8.929,19.843-19.843,19.843H19.842C8.929,170.079,0,161.15,0,150.236V19.842
		C0,8.929,8.929,0,19.842,0h130.394c10.914,0,19.843,8.929,19.843,19.842V150.236z"/>
</g>
<rect x="-236.051" y="-131.874" fill="#FFFFFF" width="140.182" height="140.182"/>
<rect x="18.591" y="18.709" fill="#FFFFFF" width="132.896" height="132.896"/>
<g>
	<g>
		<g>
			<path d="M113.191,120.583c-12.136,0-21.868-3.185-28.922-9.463c-7.097-6.314-10.695-15.016-10.695-25.863
				c0-10.973,3.665-19.844,10.893-26.367c7.192-6.493,16.961-9.784,29.032-9.784c3.222,0,6.334,0.224,9.251,0.666
				c2.938,0.443,5.738,1.138,8.325,2.063l0.811,0.29l-0.532,10.794l-1.502-0.589c-2.725-1.068-5.423-1.88-8.018-2.412
				c-2.589-0.529-5.256-0.799-7.925-0.799c-8.382,0-15.109,2.329-19.994,6.921c-4.866,4.572-7.333,10.859-7.333,18.684
				c0,7.917,2.457,14.209,7.3,18.704c4.869,4.515,11.642,6.804,20.13,6.804c2.723,0,5.402-0.246,7.967-0.73
				c2.586-0.486,5.173-1.209,7.685-2.149l1.508-0.564l0.396,11.113l-0.85,0.26c-2.578,0.791-5.357,1.399-8.261,1.806
				C119.569,120.375,116.452,120.583,113.191,120.583z"/>
		</g>
	</g>
</g>
<g>
	<g>
		<g>
			<path d="M48.251,120.973c-1.544,0-3.101-0.085-4.626-0.249c-1.539-0.166-3.064-0.418-4.528-0.748l-0.905-0.203v-11.088
				l1.547,0.549c1.029,0.364,2.039,0.643,3,0.825c0.948,0.181,1.96,0.272,3.005,0.272c3.606,0,6.115-1.152,7.673-3.521
				c1.638-2.49,2.469-6.777,2.469-12.746V49.299h12.599v46.848c0,8.364-1.635,14.642-4.858,18.658
				C60.344,118.898,55.17,120.973,48.251,120.973z"/>
		</g>
	</g>
</g>
<g>
	<path fill="#FFFFFF" d="M-81.755,151.564c15.676,0,28.438-12.764,28.438-28.466V47.241c0-15.7-12.762-28.464-28.438-28.464h-75.881
		c-15.677,0-28.417,12.764-28.417,28.464v75.857c0,15.702,12.739,28.466,28.417,28.466H-81.755L-81.755,151.564z"/>
	<path fill="#006CBA" d="M-157.614-0.222c-26.12,0-47.413,21.306-47.413,47.425v75.923c0,26.144,21.293,47.412,47.413,47.412h75.933
		c26.145,0,47.438-21.271,47.438-47.412V47.203c0-26.119-21.292-47.425-47.438-47.425L-157.614-0.222L-157.614-0.222z
		 M-186.062,123.125V47.203c0-15.667,12.757-28.448,28.448-28.448h75.933c15.691,0,28.424,12.781,28.424,28.448v75.923
		c0,15.666-12.733,28.472-28.424,28.472h-75.933C-173.305,151.597-186.062,138.792-186.062,123.125"/>
	<polygon points="-152.739,62.434 -171.753,62.434 -171.753,51.98 -120.386,51.98 -120.386,62.434 -139.424,62.434 
		-139.424,118.372 -152.739,118.372 	"/>
	<path d="M-76.272,64.143c-4.171-1.807-8.828-2.874-13.485-2.874c-4.561,0-10.477,2.012-10.477,9.264
		c0,11.507,29.126,6.658,29.126,28.897c0,14.574-11.519,20.104-24.932,20.104c-7.227,0-10.477-0.968-17.023-2.594l1.212-11.957
		c4.56,2.477,9.823,4.075,15.06,4.075c5.045,0,11.738-2.569,11.738-8.585c0-12.634-29.078-7.397-29.078-29.37
		c0-14.854,11.52-20.262,23.258-20.262c5.675,0,10.962,0.739,15.886,2.376L-76.272,64.143z"/>
</g>
</svg>
